<?xml version="1.0" encoding="UTF-8"?>
<svg width="20px" height="8px" viewBox="0 0 20 8" version="1.1" xmlns="http://www.w3.org/2000/svg" xmlns:xlink="http://www.w3.org/1999/xlink">
    <!-- Generator: Sketch 53.2 (72643) - https://sketchapp.com -->
    <title>Toggle</title>
    <desc>Created with Sketch.</desc>
    <g id="Design" stroke="none" stroke-width="1" fill="none" fill-rule="evenodd">
        <g id="Dashboard" transform="translate(-1370.000000, -56.000000)" fill="#000000" fill-rule="nonzero">
            <path d="M1390,63 C1390,63.6 1389.7,64 1389.25,64 L1375.75,64 C1375.3,64 1375,63.6 1375,63 C1375,62.4 1375.3,62 1375.75,62 L1389.25,62 C1389.7,62 1390,62.4 1390,63 Z M1371,58 L1389,58 C1389.6,58 1390,57.6 1390,57 C1390,56.4 1389.6,56 1389,56 L1371,56 C1370.4,56 1370,56.4 1370,57 C1370,57.6 1370.4,58 1371,58 Z" id="Toggle"></path>
        </g>
    </g>
</svg>