<?xml version="1.0" encoding="UTF-8"?>
<svg width="24px" height="24px" viewBox="0 0 24 24" version="1.1" xmlns="http://www.w3.org/2000/svg" xmlns:xlink="http://www.w3.org/1999/xlink">
    <!-- Generator: Sketch 53.2 (72643) - https://sketchapp.com -->
    <title>Settings</title>
    <desc>Created with Sketch.</desc>
    <defs>
        <path d="M12,8 C9.8,8 8,9.8 8,12 C8,14.2 9.8,16 12,16 C14.2,16 16,14.2 16,12 C16,9.8 14.2,8 12,8 Z M12,14 C10.9,14 10,13.1 10,12 C10,10.9 10.9,10 12,10 C13.1,10 14,10.9 14,12 C14,13.1 13.1,14 12,14 Z M20.3,15.4 C20.4,15.2 20.6,15 21,15 C22.7,15 24,13.7 24,12 C24,10.3 22.7,9 21,9 L20.8,9 C20.6,9 20.4,8.9 20.3,8.7 C20.3,8.6 20.3,8.6 20.2,8.5 C20.1,8.3 20.1,8 20.4,7.7 C21.6,6.5 21.6,4.6 20.4,3.5 L20.4,3.5 C20.4,3.5 20.4,3.5 20.4,3.5 C19.8,2.9 19.1,2.6 18.3,2.6 C17.5,2.6 16.7,2.9 16.1,3.5 C15.9,3.7 15.6,3.7 15.4,3.6 C15.2,3.6 15,3.3 15,3 C15,1.3 13.7,0 12,0 C10.3,0 9,1.3 9,3 L9,3.2 C9,3.4 8.9,3.6 8.7,3.7 C8.6,3.7 8.6,3.7 8.5,3.8 C8.3,3.9 8,3.8 7.7,3.6 C6.5,2.4 4.6,2.4 3.5,3.6 C2.3,4.8 2.3,6.7 3.6,7.9 C3.8,8.1 3.8,8.4 3.7,8.7 C3.6,8.9 3.3,9.1 3,9.1 C1.3,9.1 0,10.4 0,12.1 C0,13.8 1.3,15.1 3,15.1 L3.2,15.1 C3.5,15.1 3.7,15.3 3.8,15.5 C3.9,15.7 3.9,16 3.6,16.3 C3,16.9 2.7,17.6 2.7,18.4 C2.7,19.2 3,19.9 3.6,20.5 C3.6,20.5 3.6,20.5 3.6,20.5 C4.8,21.7 6.7,21.7 7.9,20.4 C8.1,20.2 8.4,20.2 8.7,20.3 C9,20.4 9.1,20.6 9.1,21 C9.1,22.7 10.4,24 12.1,24 C13.8,24 15.1,22.7 15.1,21 L15.1,20.8 C15.1,20.5 15.3,20.3 15.5,20.2 C15.7,20.1 16,20.1 16.3,20.4 C17.5,21.6 19.4,21.6 20.5,20.4 C21.7,19.2 21.7,17.3 20.4,16.1 C20.3,15.9 20.2,15.6 20.3,15.4 C20.3,15.4 20.3,15.4 20.3,15.4 Z M18.5,14.6 C18.1,15.6 18.3,16.7 19.1,17.6 C19.3,17.8 19.4,18 19.4,18.3 C19.4,18.6 19.3,18.8 19.1,19 C18.9,19.2 18.7,19.3 18.4,19.3 C18.4,19.3 18.4,19.3 18.4,19.3 C18.1,19.3 17.9,19.2 17.6,18.9 C16.8,18.1 15.7,17.9 14.7,18.4 C13.7,18.8 13.1,19.8 13.1,20.8 L13.1,21 C13.1,21.6 12.7,22 12.1,22 C11.5,22 11.1,21.6 11.1,21 C11.1,21 11.1,20.9 11.1,20.9 C11.1,19.8 10.4,18.9 9.4,18.5 C9.1,18.3 8.7,18.3 8.3,18.3 C7.6,18.3 6.9,18.6 6.4,19.1 C6,19.5 5.4,19.5 5,19.1 C5,19.1 5,19.1 5,19.1 L5,19.1 C4.8,18.9 4.7,18.7 4.7,18.4 C4.7,18.1 4.8,17.9 5.1,17.6 C5.9,16.8 6.1,15.7 5.6,14.7 C5.2,13.7 4.2,13.1 3.2,13.1 L3,13.1 C2.4,13.1 2,12.7 2,12.1 C2,11.5 2.4,11.1 3,11.1 C3,11.1 3.1,11.1 3.1,11.1 C4.2,11.1 5.1,10.4 5.5,9.4 C5.9,8.4 5.7,7.3 4.9,6.4 C4.5,6 4.5,5.4 4.9,5 C5.3,4.6 5.9,4.6 6.4,5.1 C7.1,5.8 8.2,6 9.1,5.7 C9.2,5.7 9.3,5.7 9.4,5.6 C10.4,5.2 11,4.2 11,3.2 L11,3 C11,2.4 11.4,2 12,2 C12.6,2 13,2.4 13,3.1 C13,4.2 13.6,5.1 14.6,5.5 C15.6,5.9 16.7,5.7 17.6,4.9 C17.8,4.7 18,4.6 18.3,4.6 L18.3,4.6 C18.6,4.6 18.8,4.7 19,4.9 C19,4.9 19,4.9 19,4.9 C19.4,5.3 19.4,5.9 18.9,6.4 C18.2,7.1 18,8.2 18.3,9.1 C18.3,9.2 18.3,9.3 18.4,9.4 C18.8,10.4 19.8,11 20.8,11 L21,11 C21.6,11 22,11.4 22,12 C22,12.6 21.6,13 20.9,13 C19.9,13 18.9,13.6 18.5,14.6 Z" id="path-1"></path>
    </defs>
    <g id="Design" stroke="none" stroke-width="1" fill="none" fill-rule="evenodd">
        <g id="Dashboard" transform="translate(-60.000000, -502.000000)">
            <g id="Sidebar">
                <g id="Links" transform="translate(60.000000, 246.000000)">
                    <g id="Icons" transform="translate(0.000000, 22.000000)">
                        <g id="icon-/-settings" transform="translate(0.000000, 234.000000)">
                            <mask id="mask-2" fill="white">
                                <use xlink:href="#path-1"></use>
                            </mask>
                            <use id="Mask" fill="#000000" fill-rule="nonzero" xlink:href="#path-1"></use>
                            <g id="color-/-grey" mask="url(#mask-2)" fill="#9E9E9E" fill-rule="evenodd">
                                <rect id="Shape" x="0" y="0" width="24" height="24"></rect>
                            </g>
                        </g>
                    </g>
                </g>
            </g>
        </g>
    </g>
</svg>