<?xml version="1.0" encoding="UTF-8"?>
<svg width="22px" height="21px" viewBox="0 0 22 21" version="1.1" xmlns="http://www.w3.org/2000/svg" xmlns:xlink="http://www.w3.org/1999/xlink">
    <!-- Generator: Sketch 53.2 (72643) - https://sketchapp.com -->
    <title>icon / star copy 3</title>
    <desc>Created with Sketch.</desc>
    <defs>
        <path d="M22.9626274,8.9121834 C22.8629672,8.51283029 22.5639864,8.31315374 22.1653454,8.21331546 L15.7870895,7.31477097 L12.8969422,1.52415095 C12.5979615,0.825283017 11.4020385,0.825283017 11.1030578,1.52415095 L8.21291053,7.2149327 L1.93431484,8.21331546 C1.53567384,8.21331546 1.23669309,8.51283029 1.03737259,8.9121834 C0.937712344,9.3115365 1.03737259,9.71088961 1.33635334,9.91056616 L5.9207248,14.4032886 L4.82446206,20.7929383 C4.72480181,21.1922914 4.92412231,21.5916445 5.22310306,21.791321 C5.52208381,21.9909976 5.9207248,22.0908359 6.3193658,21.8911593 L12,18.896011 L17.6806342,21.8911593 C17.8799547,21.8911593 17.9796149,21.8911593 18.1789354,21.8911593 C18.3782559,21.8911593 18.5775764,21.791321 18.7768969,21.6914828 C19.0758777,21.4918062 19.2751982,21.0924531 19.1755379,20.6931 L18.0792752,14.3034503 L22.6636467,9.81072788 C22.9626274,9.61105133 23.0622877,9.21169822 22.9626274,8.9121834 Z M16.2853907,13.3050676 C16.0860702,13.6045824 15.98641,13.9040972 15.98641,14.203612 L16.783692,19.0956876 L12.398641,16.7994072 C12.0996602,16.5997307 11.8006795,16.5997307 11.5016988,16.7994072 L7.11664779,19.0956876 L8.01359003,14.203612 C8.01359003,13.9040972 7.91392978,13.6045824 7.71460929,13.3050676 L4.12684032,9.91056616 L9.01019253,9.21169822 C9.30917327,9.21169822 9.60815402,8.9121834 9.80747452,8.71250684 L12,4.21978441 L14.1925255,8.61266857 C14.2921857,8.9121834 14.5911665,9.11185995 14.9898075,9.11185995 L19.8731597,9.81072788 L16.2853907,13.3050676 Z" id="path-1"></path>
    </defs>
    <g id="Design" stroke="none" stroke-width="1" fill="none" fill-rule="evenodd" opacity="0.380580357">
        <g id="Dashboard" transform="translate(-548.000000, -282.000000)">
            <g id="Group-2" transform="translate(547.000000, 274.000000)">
                <g id="icon-/-star" transform="translate(0.000000, 7.000000)">
                    <mask id="mask-2" fill="white">
                        <use xlink:href="#path-1"></use>
                    </mask>
                    <use id="Mask" fill="#000000" fill-rule="nonzero" xlink:href="#path-1"></use>
                    <g id="color-/-white" mask="url(#mask-2)" fill="#FFFFFF" fill-rule="evenodd">
                        <rect id="Shape" x="0" y="0" width="24" height="24"></rect>
                    </g>
                </g>
            </g>
        </g>
    </g>
</svg>